<?xml version="1.0" standalone="no"?>
<!DOCTYPE svg PUBLIC "-//W3C//DTD SVG 20010904//EN"
 "http://www.w3.org/TR/2001/REC-SVG-20010904/DTD/svg10.dtd">
<svg version="1.0" xmlns="http://www.w3.org/2000/svg"
 width="700.000000pt" height="700.000000pt" viewBox="0 0 700.000000 700.000000"
 preserveAspectRatio="xMidYMid meet">
<metadata>
Created by potrace 1.14, written by Peter Selinger 2001-2017
</metadata>
<g transform="translate(0.000000,700.000000) scale(0.100000,-0.100000)"
fill="#000000" stroke="none">
<path d="M0 3500 l0 -3500 3500 0 3500 0 0 3500 0 3500 -3500 0 -3500 0 0
-3500z m2963 473 c2 -983 4 -1093 20 -1143 58 -191 164 -291 354 -336 103 -24
305 -15 394 18 181 67 276 210 299 448 5 52 10 546 10 1098 l0 1002 310 0 311
0 -3 -1112 -3 -1113 -28 -100 c-29 -107 -86 -236 -138 -313 -47 -68 -164 -187
-234 -237 -201 -143 -437 -208 -755 -208 -205 0 -325 17 -479 69 -359 120
-583 373 -668 754 -15 67 -17 194 -20 1154 -2 593 -2 1085 1 1092 4 11 64 14
315 14 l310 0 4 -1087z"/>
</g>
</svg>
