<svg width="126" height="36" viewBox="0 0 126 36" fill="none" xmlns="http://www.w3.org/2000/svg">
<path fill-rule="evenodd" clip-rule="evenodd" d="M0 0H126V15.12V36H0V0Z" fill="black"/>
<path d="M15.8232 26H12.6006V10.3594H15.8232V26Z" fill="white"/>
<path d="M19.5078 15.1611L18.0469 14.3125C18.6628 13.3457 18.9814 12.3467 19.0029 11.3154V9.5H21.4736V11.165C21.4736 11.8096 21.2946 12.5078 20.9365 13.2598C20.5785 14.0117 20.1022 14.6455 19.5078 15.1611Z" fill="white"/>
<path d="M26.3613 14.377L26.458 15.6768C27.2816 14.667 28.3952 14.1621 29.7988 14.1621C31.2956 14.1621 32.3232 14.7529 32.8818 15.9346C33.6982 14.7529 34.862 14.1621 36.373 14.1621C37.6335 14.1621 38.5716 14.5309 39.1875 15.2686C39.8034 15.999 40.1113 17.1019 40.1113 18.5771V26H36.9961V18.5879C36.9961 17.929 36.8672 17.4492 36.6094 17.1484C36.3516 16.8405 35.8968 16.6865 35.2451 16.6865C34.3141 16.6865 33.6696 17.1305 33.3115 18.0186L33.3223 26H30.2178V18.5986C30.2178 17.9255 30.0853 17.4385 29.8203 17.1377C29.5553 16.8369 29.1042 16.6865 28.4668 16.6865C27.5859 16.6865 26.9486 17.0518 26.5547 17.7822V26H23.4502V14.377H26.3613Z" fill="white"/>
<path d="M60.0273 10.3594V20.6611C60.0273 22.3727 59.4902 23.7262 58.416 24.7217C57.349 25.7171 55.888 26.2148 54.0332 26.2148C52.207 26.2148 50.7568 25.7314 49.6826 24.7646C48.6084 23.7979 48.0605 22.4694 48.0391 20.7793V10.3594H51.2617V20.6826C51.2617 21.7067 51.5052 22.4551 51.9922 22.9277C52.4863 23.3932 53.1667 23.626 54.0332 23.626C55.8451 23.626 56.7653 22.6735 56.7939 20.7686V10.3594H60.0273Z" fill="white"/>
<path d="M68.7607 22.7881C68.7607 22.4085 68.571 22.1113 68.1914 21.8965C67.819 21.6745 67.2174 21.4775 66.3867 21.3057C63.6224 20.7256 62.2402 19.5511 62.2402 17.7822C62.2402 16.751 62.6663 15.8916 63.5186 15.2041C64.3779 14.5094 65.4987 14.1621 66.8809 14.1621C68.3561 14.1621 69.5342 14.5094 70.415 15.2041C71.3031 15.8988 71.7471 16.8011 71.7471 17.9111H68.6426C68.6426 17.4671 68.4993 17.1019 68.2129 16.8154C67.9264 16.5218 67.4788 16.375 66.8701 16.375C66.3473 16.375 65.9427 16.4932 65.6562 16.7295C65.3698 16.9658 65.2266 17.2666 65.2266 17.6318C65.2266 17.9756 65.3877 18.2549 65.71 18.4697C66.0394 18.6774 66.5908 18.86 67.3643 19.0176C68.1377 19.168 68.7894 19.3398 69.3193 19.5332C70.9593 20.1348 71.7793 21.1768 71.7793 22.6592C71.7793 23.7191 71.3245 24.5785 70.415 25.2373C69.5055 25.889 68.3311 26.2148 66.8916 26.2148C65.9176 26.2148 65.0511 26.043 64.292 25.6992C63.54 25.3483 62.9492 24.8721 62.5195 24.2705C62.0898 23.6618 61.875 23.0065 61.875 22.3047H64.8184C64.847 22.8561 65.0511 23.2786 65.4307 23.5723C65.8102 23.8659 66.3187 24.0127 66.9561 24.0127C67.5505 24.0127 67.998 23.9017 68.2988 23.6797C68.6068 23.4505 68.7607 23.1533 68.7607 22.7881Z" fill="white"/>
<path d="M76.6992 14.377L76.7959 15.6768C77.6195 14.667 78.7331 14.1621 80.1367 14.1621C81.6335 14.1621 82.6611 14.7529 83.2197 15.9346C84.0361 14.7529 85.1999 14.1621 86.7109 14.1621C87.9714 14.1621 88.9095 14.5309 89.5254 15.2686C90.1413 15.999 90.4492 17.1019 90.4492 18.5771V26H87.334V18.5879C87.334 17.929 87.2051 17.4492 86.9473 17.1484C86.6895 16.8405 86.2347 16.6865 85.583 16.6865C84.652 16.6865 84.0075 17.1305 83.6494 18.0186L83.6602 26H80.5557V18.5986C80.5557 17.9255 80.4232 17.4385 80.1582 17.1377C79.8932 16.8369 79.4421 16.6865 78.8047 16.6865C77.9238 16.6865 77.2865 17.0518 76.8926 17.7822V26H73.7881V14.377H76.6992Z" fill="white"/>
<path d="M99.5801 26C99.4368 25.7207 99.333 25.3734 99.2686 24.958C98.5166 25.7959 97.5391 26.2148 96.3359 26.2148C95.1973 26.2148 94.252 25.8854 93.5 25.2266C92.7552 24.5677 92.3828 23.737 92.3828 22.7344C92.3828 21.5026 92.8376 20.5573 93.7471 19.8984C94.6637 19.2396 95.985 18.9066 97.7109 18.8994H99.1396V18.2334C99.1396 17.6963 99 17.2666 98.7207 16.9443C98.4486 16.6221 98.0153 16.4609 97.4209 16.4609C96.8981 16.4609 96.4863 16.5863 96.1855 16.8369C95.8919 17.0876 95.7451 17.4313 95.7451 17.8682H92.6406C92.6406 17.195 92.8483 16.5719 93.2637 15.999C93.679 15.4261 94.2663 14.9785 95.0254 14.6562C95.7845 14.3268 96.6367 14.1621 97.582 14.1621C99.0143 14.1621 100.149 14.5238 100.987 15.2471C101.832 15.9632 102.255 16.973 102.255 18.2764V23.3145C102.262 24.4173 102.416 25.2516 102.717 25.8174V26H99.5801ZM97.0127 23.8408C97.471 23.8408 97.8936 23.7406 98.2803 23.54C98.667 23.3324 98.9535 23.0566 99.1396 22.7129V20.7148H97.9795C96.4255 20.7148 95.5983 21.252 95.498 22.3262L95.4873 22.5088C95.4873 22.8955 95.6234 23.2142 95.8955 23.4648C96.1676 23.7155 96.54 23.8408 97.0127 23.8408Z" fill="white"/>
<path d="M107.497 14.377L107.594 15.7197C108.424 14.6813 109.538 14.1621 110.935 14.1621C112.166 14.1621 113.083 14.5238 113.685 15.2471C114.286 15.9704 114.594 17.0518 114.608 18.4912V26H111.504V18.5664C111.504 17.9076 111.361 17.4313 111.074 17.1377C110.788 16.8369 110.312 16.6865 109.646 16.6865C108.772 16.6865 108.117 17.0589 107.68 17.8037V26H104.575V14.377H107.497Z" fill="white"/>
</svg>
